<svg width="38" height="36" viewBox="0 0 38 36" fill="none" xmlns="http://www.w3.org/2000/svg">
<path fill-rule="evenodd" clip-rule="evenodd" d="M37.5877 14.9532L29.0114 22.8954L31.2489 34.3682C31.3218 34.7438 31.2204 35.132 30.9748 35.4252C30.7291 35.7184 30.3631 35.8832 29.9812 35.8769C29.7593 35.88 29.5407 35.8261 29.3473 35.7184L19.2055 30.0138L8.96234 35.6867C8.53131 35.9244 8.00203 35.8912 7.60427 35.6028C7.20652 35.3128 7.01162 34.8199 7.10509 34.3366L9.37434 22.8699L0.823589 14.9021C0.46229 14.5662 0.329157 14.0495 0.48289 13.5805C0.636603 13.1098 1.0486 12.7723 1.53987 12.7153L13.1457 11.3271L18.071 0.728951C18.2786 0.288433 18.7191 0.00474636 19.2056 0C19.6984 0.00158212 20.1453 0.288408 20.3529 0.73528L25.2781 11.346L36.884 12.7595C37.3752 12.8198 37.7873 13.1589 37.9378 13.6311C38.0899 14.1018 37.9521 14.6183 37.5876 14.9527L37.5877 14.9532Z" fill="#C5C9CC"/>
</svg>
