<svg width="38" height="36" viewBox="0 0 38 36" fill="none" xmlns="http://www.w3.org/2000/svg">
<path fill-rule="evenodd" clip-rule="evenodd" d="M37.4842 14.9532L28.9079 22.8954L31.1454 34.3682C31.2183 34.7438 31.1169 35.132 30.8713 35.4252C30.6256 35.7184 30.2596 35.8832 29.8777 35.8769C29.6558 35.88 29.4372 35.8261 29.2438 35.7184L19.102 30.0138L8.85882 35.6867C8.42779 35.9244 7.89851 35.8912 7.50075 35.6028C7.103 35.3128 6.90811 34.8199 7.00157 34.3366L9.27082 22.8699L0.720074 14.9021C0.358775 14.5662 0.225641 14.0495 0.379375 13.5805C0.533088 13.1098 0.945084 12.7723 1.43635 12.7153L13.0422 11.3271L17.9675 0.728951C18.1751 0.288433 18.6156 0.00474636 19.1021 0C19.5949 0.00158212 20.0418 0.288408 20.2494 0.73528L25.1746 11.346L36.7805 12.7595C37.2717 12.8198 37.6838 13.1589 37.8343 13.6311C37.9864 14.1018 37.8486 14.6183 37.4841 14.9527L37.4842 14.9532Z" fill="#FFBD00"/>
</svg>
